<svg width="116" height="20" viewBox="0 0 116 20" fill="none" xmlns="http://www.w3.org/2000/svg">
<path d="M10 1.66667L12.575 6.88334L18.3334 7.725L14.1667 11.7833L15.15 17.5167L10 14.8083L4.85002 17.5167L5.83335 11.7833L1.66669 7.725L7.42502 6.88334L10 1.66667Z" fill="#FFA800" stroke="#FFA800" stroke-width="0.677966" stroke-linecap="round" stroke-linejoin="round"/>
<path d="M34 1.66667L36.575 6.88334L42.3334 7.725L38.1667 11.7833L39.15 17.5167L34 14.8083L28.85 17.5167L29.8334 11.7833L25.6667 7.725L31.425 6.88334L34 1.66667Z" fill="#FFA800" stroke="#FFA800" stroke-width="0.677966" stroke-linecap="round" stroke-linejoin="round"/>
<path d="M58 1.66667L60.575 6.88334L66.3334 7.725L62.1667 11.7833L63.15 17.5167L58 14.8083L52.85 17.5167L53.8334 11.7833L49.6667 7.725L55.425 6.88334L58 1.66667Z" fill="#FFA800" stroke="#FFA800" stroke-width="0.677966" stroke-linecap="round" stroke-linejoin="round"/>
<path d="M82 1.66667L84.575 6.88334L90.3333 7.725L86.1666 11.7833L87.15 17.5167L82 14.8083L76.85 17.5167L77.8333 11.7833L73.6666 7.725L79.425 6.88334L82 1.66667Z" fill="#FFA800" stroke="#FFA800" stroke-width="0.677966" stroke-linecap="round" stroke-linejoin="round"/>
<path d="M106 1.66667L108.575 6.88334L114.333 7.725L110.167 11.7833L111.15 17.5167L106 14.8083L100.85 17.5167L101.833 11.7833L97.6666 7.725L103.425 6.88334L106 1.66667Z" fill="white" fill-opacity="0.5" stroke="white" stroke-opacity="0.5" stroke-width="0.677966" stroke-linecap="round" stroke-linejoin="round"/>
</svg>
