<svg width="76" height="19" viewBox="0 0 76 19" fill="none" xmlns="http://www.w3.org/2000/svg">
<path d="M9 16.5C13.1421 16.5 16.5 13.1421 16.5 9C16.5 4.85786 13.1421 1.5 9 1.5C4.85786 1.5 1.5 4.85786 1.5 9C1.5 13.1421 4.85786 16.5 9 16.5Z" stroke="white" stroke-width="2" stroke-linecap="round" stroke-linejoin="round"/>
<path d="M9 4.5V9L12 10.5" stroke="white" stroke-width="2" stroke-linecap="round" stroke-linejoin="round"/>
<path d="M29.928 6.632C30.056 6.6 30.1947 6.576 30.344 6.56C30.4987 6.53867 30.6693 6.528 30.856 6.528C31.4747 6.528 32.0267 6.61867 32.512 6.8C33.0027 6.98133 33.416 7.22933 33.752 7.544C34.0933 7.85867 34.352 8.22667 34.528 8.648C34.7093 9.064 34.8 9.512 34.8 9.992C34.8 10.5413 34.6907 11.0453 34.472 11.504C34.2533 11.9627 33.9547 12.3787 33.576 12.752C33.2027 13.12 32.7653 13.4453 32.264 13.728C31.7627 14.0053 31.2267 14.24 30.656 14.432C30.0907 14.6187 29.5067 14.76 28.904 14.856C28.3013 14.952 27.712 15 27.136 15V13.192C27.5147 13.1813 27.9013 13.1387 28.296 13.064C28.696 12.9893 29.0827 12.888 29.456 12.76C29.8293 12.632 30.1813 12.4773 30.512 12.296C30.8427 12.1147 31.1307 11.9147 31.376 11.696C31.6267 11.472 31.824 11.232 31.968 10.976C32.112 10.7147 32.184 10.44 32.184 10.152C32.184 9.93333 32.1467 9.72 32.072 9.512C31.9973 9.304 31.8907 9.12 31.752 8.96C31.6187 8.8 31.4587 8.672 31.272 8.576C31.0853 8.47467 30.8773 8.424 30.648 8.424C30.4453 8.424 30.256 8.44 30.08 8.472C29.904 8.504 29.744 8.54667 29.6 8.6C29.456 8.648 29.328 8.70133 29.216 8.76C29.1093 8.81867 29.016 8.87467 28.936 8.928H27.136V3H34.064V4.6H29.928V6.632ZM40.6463 7.96L41.2383 5.056L39.4223 7.224L38.7503 7.816L37.5103 6.336L41.3503 2.8L43.2943 3.064V13.4H45.2383V15H38.7023V13.4H40.6463V7.96ZM50.4605 15H47.8525V6.256L50.4605 5.992V7.504L51.1805 6.296C51.3512 6.23733 51.5245 6.184 51.7005 6.136C51.8818 6.088 52.0658 6.064 52.2525 6.064C52.4818 6.064 52.7112 6.08267 52.9405 6.12C53.1752 6.15733 53.3938 6.208 53.5965 6.272C53.8045 6.336 53.9938 6.416 54.1645 6.512C54.3405 6.60267 54.4845 6.704 54.5965 6.816C54.7192 6.73067 54.8605 6.64267 55.0205 6.552C55.1858 6.46133 55.3672 6.38133 55.5645 6.312C55.7672 6.23733 55.9832 6.17867 56.2125 6.136C56.4418 6.088 56.6845 6.064 56.9405 6.064C57.4258 6.064 57.8605 6.136 58.2445 6.28C58.6338 6.424 58.9618 6.62933 59.2285 6.896C59.5005 7.15733 59.7085 7.47733 59.8525 7.856C59.9965 8.22933 60.0685 8.648 60.0685 9.112V15H57.4605V8.944C57.4605 8.72533 57.4338 8.544 57.3805 8.4C57.3272 8.25067 57.2552 8.13333 57.1645 8.048C57.0792 7.95733 56.9805 7.89333 56.8685 7.856C56.7618 7.81867 56.6498 7.8 56.5325 7.8C56.4578 7.8 56.3698 7.81867 56.2685 7.856C56.1672 7.888 56.0578 7.936 55.9405 8C55.8232 8.05867 55.7032 8.13067 55.5805 8.216C55.4578 8.296 55.3432 8.38667 55.2365 8.488C55.2472 8.616 55.2525 8.728 55.2525 8.824C55.2578 8.91467 55.2605 9.03467 55.2605 9.184V15H52.6525V8.944C52.6525 8.72533 52.6312 8.544 52.5885 8.4C52.5512 8.25067 52.4978 8.13333 52.4285 8.048C52.3592 7.95733 52.2738 7.89333 52.1725 7.856C52.0765 7.81867 51.9698 7.8 51.8525 7.8C51.7618 7.8 51.6578 7.816 51.5405 7.848C51.4285 7.88 51.3112 7.92533 51.1885 7.984C51.0658 8.03733 50.9405 8.10667 50.8125 8.192C50.6898 8.27733 50.5725 8.37067 50.4605 8.472V15ZM64.7548 15H62.2268V6.608L64.7548 6.352V15ZM62.1788 3H64.8028V4.848H62.1788V3ZM69.6636 5.992V7.504L70.3836 6.296C70.5543 6.23733 70.7276 6.184 70.9036 6.136C71.085 6.088 71.269 6.064 71.4556 6.064C71.685 6.064 71.9063 6.072 72.1196 6.088C72.3383 6.09867 72.5463 6.13067 72.7436 6.184C72.941 6.232 73.1276 6.30667 73.3036 6.408C73.4796 6.504 73.645 6.63733 73.7996 6.808C73.965 6.98933 74.093 7.18667 74.1836 7.4C74.2743 7.61333 74.3383 7.82667 74.3756 8.04C74.4183 8.248 74.4423 8.45333 74.4476 8.656C74.4583 8.85333 74.4636 9.02933 74.4636 9.184V15H71.8556V8.944C71.8556 8.72533 71.8343 8.544 71.7916 8.4C71.7543 8.25067 71.701 8.13333 71.6316 8.048C71.5623 7.95733 71.477 7.89333 71.3756 7.856C71.2796 7.81867 71.173 7.8 71.0556 7.8C70.965 7.8 70.861 7.816 70.7436 7.848C70.6316 7.88 70.5143 7.92533 70.3916 7.984C70.269 8.03733 70.1436 8.10667 70.0156 8.192C69.893 8.27733 69.7756 8.37067 69.6636 8.472V15H67.0556V6.256L69.6636 5.992Z" fill="white"/>
</svg>
